<svg xmlns="http://www.w3.org/2000/svg" width="240.157" height="104.053" viewBox="0 0 240.157 104.053"><defs><style>.a{fill:#584a79;}</style></defs><g transform="translate(-3928.621 -2530.447)"><path class="a" d="M4144.564,2696.451a9.955,9.955,0,1,0,0,19.91h9.955v-9.955A9.955,9.955,0,0,0,4144.564,2696.451Zm3.489,13.444h-3.489a3.489,3.489,0,1,1,3.489-3.489Z" transform="translate(-186.961 -150.671)"/><path class="a" d="M4134.609,3292.391a9.955,9.955,0,1,0,19.91,0v-9.955h-9.955A9.955,9.955,0,0,0,4134.609,3292.391Zm13.444,0a3.489,3.489,0,1,1-3.489-3.489h3.489Z" transform="translate(-186.961 -682.53)"/><path class="a" d="M6105.415,3282.436h-9.955v9.955a9.955,9.955,0,1,0,9.955-9.955Zm0,13.444a3.493,3.493,0,0,1-3.489-3.489V3288.9h3.489a3.489,3.489,0,1,1,0,6.978Z" transform="translate(-1966.693 -682.53)"/><path class="a" d="M6105.415,2696.451a9.955,9.955,0,0,0-9.955,9.955v9.955h9.955a9.955,9.955,0,1,0,0-19.91Zm0,13.444h-3.489v-3.489a3.489,3.489,0,1,1,3.489,3.489Z" transform="translate(-1966.693 -150.671)"/><path class="a" d="M4154.53,2530.447h-211.66a14.248,14.248,0,0,0-14.248,14.248v75.557a14.248,14.248,0,0,0,14.248,14.248h211.66a14.249,14.249,0,0,0,14.249-14.248V2544.7A14.248,14.248,0,0,0,4154.53,2530.447Zm6.12,89.8a6.127,6.127,0,0,1-6.12,6.12h-211.66a6.127,6.127,0,0,1-6.12-6.12V2544.7a6.127,6.127,0,0,1,6.12-6.12h211.66a6.127,6.127,0,0,1,6.12,6.12Z" transform="translate(0 0)"/><path class="a" d="M4853.529,2743.532a24.467,24.467,0,0,1,24.293,21.568h2.212a2.9,2.9,0,1,1,0,5.791h-2.212a24.466,24.466,0,0,1-48.587,0h-2.285a2.9,2.9,0,0,1,0-5.791h2.285a24.468,24.468,0,0,1,24.294-21.568m0-8.683a33.163,33.163,0,0,0-31.443,22.639,11.58,11.58,0,0,0,0,21.015,33.156,33.156,0,0,0,62.9-.041,11.58,11.58,0,0,0,0-20.935,33.162,33.162,0,0,0-31.456-22.679Z" transform="translate(-804.844 -185.522)"/></g></svg>