<svg xmlns="http://www.w3.org/2000/svg" xmlns:xlink="http://www.w3.org/1999/xlink" width="201" height="378.118" viewBox="0 0 201 378.118"><defs><style>.a{fill:#fff;}.b{fill:#584a79;}.c{clip-path:url(#a);}.d{fill:#d0ff14;}</style><clipPath id="a"><rect class="a" width="201" height="139" transform="translate(-0.162 0.042)"/></clipPath></defs><g transform="translate(-184 -1850.882)"><g transform="translate(209.604 1850.882)"><g transform="translate(4.461 4.385)"><path class="b" d="M706.8,2414.135h-.636v-146l117.309-117.31v-63.015l-15.194-15.194.449-.449,15.38,15.38v63.542L706.8,2268.4Z" transform="translate(-706.16 -2072.166)"/></g><g transform="translate(102.191)"><ellipse class="b" cx="4.779" cy="4.779" rx="4.779" ry="4.779"/></g><g transform="translate(0 341.336)"><ellipse class="b" cx="4.779" cy="4.779" rx="4.779" ry="4.779"/></g><g transform="translate(63.208 141.606)"><path class="b" d="M879.948,2448.06h-.635v-78.808L798.6,2288.543l.449-.449,80.9,80.9Z" transform="translate(-798.604 -2288.094)"/><g transform="translate(76.249 154.948)"><path class="b" d="M918.587,2536.7a4.779,4.779,0,1,0,4.778-4.779A4.779,4.779,0,0,0,918.587,2536.7Z" transform="translate(-918.587 -2531.918)"/></g></g></g><g class="c" transform="translate(184.162 2089.958)"><g transform="translate(25.443 -239.076)"><g transform="translate(4.461 4.385)"><path class="d" d="M706.8,2414.135h-.636v-146l117.309-117.31v-63.015l-15.194-15.194.449-.449,15.38,15.38v63.542L706.8,2268.4Z" transform="translate(-706.16 -2072.166)"/></g><g transform="translate(102.191)"><ellipse class="d" cx="4.779" cy="4.779" rx="4.779" ry="4.779"/></g><g transform="translate(0 341.336)"><ellipse class="d" cx="4.779" cy="4.779" rx="4.779" ry="4.779"/></g><g transform="translate(63.208 141.606)"><path class="d" d="M879.948,2448.06h-.635v-78.808L798.6,2288.543l.449-.449,80.9,80.9Z" transform="translate(-798.604 -2288.094)"/><g transform="translate(76.249 154.948)"><path class="d" d="M918.587,2536.7a4.779,4.779,0,1,0,4.778-4.779A4.779,4.779,0,0,0,918.587,2536.7Z" transform="translate(-918.587 -2531.918)"/></g></g></g></g></g></svg>