<svg xmlns="http://www.w3.org/2000/svg" xmlns:xlink="http://www.w3.org/1999/xlink" width="316" height="595" viewBox="0 0 316 595"><defs><style>.a{fill:#fff;}.b{fill:#584a79;}.c{clip-path:url(#a);}.d{fill:#d0ff14;}</style><clipPath id="a"><rect class="a" width="316" height="219" transform="translate(644 2603)"/></clipPath></defs><g transform="translate(-644 -2227)"><g transform="translate(-15.14 161.734)"><path class="b" d="M707.16,2610.282h-1V2380.537l184.6-184.6v-99.16l-23.909-23.908.707-.707,24.2,24.2v99.988l-184.6,184.6Z"/><circle class="b" cx="7.52" cy="7.52" r="7.52" transform="translate(859.946 2065.266)"/><circle class="b" cx="7.52" cy="7.52" r="7.52" transform="translate(699.14 2602.386)"/><path class="b" d="M926.606,2539.813h-1V2415.8l-127-127,.707-.707,127.3,127.295Z"/><path class="b" d="M918.587,2539.438a7.52,7.52,0,1,0,7.519-7.52A7.521,7.521,0,0,0,918.587,2539.438Z"/></g><g class="c"><g transform="translate(-15.14 161.734)"><path class="d" d="M707.16,2610.282h-1V2380.537l184.6-184.6v-99.16l-23.909-23.908.707-.707,24.2,24.2v99.988l-184.6,184.6Z"/><circle class="d" cx="7.52" cy="7.52" r="7.52" transform="translate(859.946 2065.266)"/><circle class="d" cx="7.52" cy="7.52" r="7.52" transform="translate(699.14 2602.386)"/><path class="d" d="M926.606,2539.813h-1V2415.8l-127-127,.707-.707,127.3,127.295Z"/><path class="d" d="M918.587,2539.438a7.52,7.52,0,1,0,7.519-7.52A7.521,7.521,0,0,0,918.587,2539.438Z"/></g></g></g></svg>