<svg xmlns="http://www.w3.org/2000/svg" width="1518.35" height="162.48" viewBox="0 0 1518.35 162.48"><defs><style>.a{fill:#584a79;}</style></defs><g transform="translate(-251.423 -6849)"><g transform="translate(32.9 4897.686)"><path class="a" d="M1729.729,2106.775h-88.551L1565.6,2031.2H1262.9l-66.07,66.07H1091.734l-42.149-42.149-359.282-1.47,0-1L1050,2054.125l42.147,42.147h104.265l66.07-66.07h303.535l75.573,75.573h88.137Z"/><path class="a" d="M1729.353,2113.794a7.52,7.52,0,1,0-7.52-7.519A7.521,7.521,0,0,0,1729.353,2113.794Z"/></g><g transform="translate(32.9 4897.686)"><path class="a" d="M647.336,2096.829H424.687l-28.458-28.458H225.666v-1H396.643l28.458,28.458H646.922l101.465-101.466v-35.905h1v36.319Z"/><path class="a" d="M741.368,1958.834a7.52,7.52,0,1,1,7.519,7.52A7.521,7.521,0,0,1,741.368,1958.834Z"/><path class="a" d="M226.042,2060.352a7.52,7.52,0,1,0,7.52,7.52A7.52,7.52,0,0,0,226.042,2060.352Z"/></g></g></svg>