<svg xmlns="http://www.w3.org/2000/svg" width="184.006" height="185.184" viewBox="0 0 184.006 185.184"><defs><style>.a{fill:#d0ff14;}.b{fill:#584a79;}</style></defs><g transform="translate(-429.258 -4479.382)"><path class="a" d="M3492.455,3875.737c13.96-.139,27.6-.795,41.2-.269,16.444.637,30.459,12.994,34.466,29.152a38.34,38.34,0,0,1-61.574,38.732c-9.036-7.425-13.886-17.074-14.129-28.734-.264-12.664-.069-25.333-.067-38A5.821,5.821,0,0,1,3492.455,3875.737Z" transform="translate(-2955.954 712.458)"/><path class="b" d="M.229.609C18.308.43,35.978-.421,53.585.261c21.3.826,39.448,16.829,44.637,37.755A49.655,49.655,0,0,1,18.477,88.178C6.775,78.562.495,66.066.178,50.964-.163,34.564.089,18.156.092,1.752A7.566,7.566,0,0,1,.229.609Z" transform="translate(528.903 4578.898) rotate(180)"/><path class="b" d="M.083.221C6.662.156,13.091-.153,19.5.095,27.247.4,33.852,6.218,35.74,13.833A18.068,18.068,0,0,1,6.723,32.085,17.365,17.365,0,0,1,.065,18.544C-.059,12.576.033,6.606.034.638A2.749,2.749,0,0,1,.083.221Z" transform="translate(528.844 4587.696) rotate(90)"/><path class="b" d="M.15.4C12.022.282,23.624-.276,35.185.171c13.984.542,25.9,11.05,29.309,24.791A32.6,32.6,0,0,1,12.133,57.9,31.337,31.337,0,0,1,.117,33.464C-.107,22.695.059,11.921.061,1.15A4.96,4.96,0,0,1,.15.4Z" transform="translate(536.384 4578.928) rotate(-90)"/></g></svg>