<svg height="842.447" viewBox="0 0 658 842.447" width="658" xmlns="http://www.w3.org/2000/svg" xmlns:xlink="http://www.w3.org/1999/xlink"><clipPath id="a"><path d="m933 3503h658v171h-658z"/></clipPath><g transform="translate(-933 -3503)"><g fill="#584a79" transform="translate(11.542 2271.021)"><path d="m940.064 1938.561-.707-.707 59.486-59.486v-181.675l92.656-92.656v-102.976l-77.556-77.556v-121.744h1v121.33l77.556 77.556v103.8l-92.656 92.656v181.674z"/><circle cx="1014.445" cy="1302.137" r="7.52"/><path d="m934.66 1932.624a7.519 7.519 0 1 0 10.634 0 7.52 7.52 0 0 0 -10.634 0z"/><path d="m1277 2040.856h-1v-86.6l85.984-85.983v-182.073l-81.745-81.745v-90.595l214.543-214.542.707.707-214.25 214.249v89.767l81.745 81.745v182.9l-85.984 85.983z"/><path d="m1489.557 1294.617a7.519 7.519 0 1 1 0 10.634 7.52 7.52 0 0 1 0-10.634z"/><path d="m1268.985 2040.48a7.52 7.52 0 1 0 7.52-7.519 7.521 7.521 0 0 0 -7.52 7.519z"/><path d="m1564.617 1925.585h-1v-242.835l-225.779-225.779.707-.707 226.072 226.072z"/><path d="m1556.6 1925.209a7.519 7.519 0 1 0 7.52-7.519 7.521 7.521 0 0 0 -7.52 7.519z"/><path d="m1165.5 1259.122h1v290.181h-1z"/><circle cx="1166" cy="1259.499" r="7.52"/><circle cx="1166" cy="1548.928" r="7.52"/><g transform="translate(-66 -21)"><path d="m1165.5 1990.402h1v97.88h-1z"/><path d="m1158.48 1990.778a7.52 7.52 0 1 1 7.52 7.519 7.521 7.521 0 0 1 -7.52-7.519z"/><circle cx="1166" cy="2087.906" r="7.52"/></g></g><g clip-path="url(#a)"><g fill="#d0ff14" transform="translate(11.542 2271.021)"><path d="m940.064 1938.561-.707-.707 59.486-59.486v-181.675l92.656-92.656v-102.976l-77.556-77.556v-121.744h1v121.33l77.556 77.556v103.8l-92.656 92.656v181.674z"/><circle cx="7.52" cy="7.52" r="7.52" transform="translate(1006.925 1294.617)"/><path d="m934.66 1932.624a7.519 7.519 0 1 0 10.634 0 7.52 7.52 0 0 0 -10.634 0z"/><path d="m1277 2040.856h-1v-86.6l85.984-85.983v-182.073l-81.745-81.745v-90.595l214.543-214.542.707.707-214.25 214.249v89.767l81.745 81.745v182.9l-85.984 85.983z"/><path d="m1489.557 1294.617a7.519 7.519 0 1 1 0 10.634 7.52 7.52 0 0 1 0-10.634z"/><path d="m1268.985 2040.48a7.52 7.52 0 1 0 7.52-7.519 7.521 7.521 0 0 0 -7.52 7.519z"/><path d="m1564.617 1925.585h-1v-242.835l-225.779-225.779.707-.707 226.072 226.072z"/><path d="m1556.6 1925.209a7.519 7.519 0 1 0 7.52-7.519 7.521 7.521 0 0 0 -7.52 7.519z"/><path d="m0 0h1v290.181h-1z" transform="translate(1165.5 1259.122)"/><circle cx="7.52" cy="7.52" r="7.52" transform="translate(1158.48 1251.979)"/><circle cx="7.52" cy="7.52" r="7.52" transform="translate(1158.48 1541.408)"/><g transform="translate(-66 -21)"><path d="m0 0h1v97.88h-1z" transform="translate(1165.5 1990.402)"/><path d="m1158.48 1990.778a7.52 7.52 0 1 1 7.52 7.519 7.521 7.521 0 0 1 -7.52-7.519z"/><circle cx="7.52" cy="7.52" r="7.52" transform="translate(1158.48 2080.386)"/></g></g></g></g></svg>