<svg xmlns="http://www.w3.org/2000/svg" width="708.993" height="113.438" viewBox="0 0 708.993 113.438"><defs><style>.a{fill:#584a79;}</style></defs><g transform="translate(-1030.082 -2590.432)"><path class="a" d="M1445.392,2703.87H1266.645l-61.542-61.543H1084.795l-47.105,47.105-.707-.707,47.4-47.4h121.136l61.542,61.543h177.919l13.527-13.527h180.952l92.01-92.011.707.707-92.3,92.3H1458.919Z"/><path class="a" d="M1042.919,2694.13a7.52,7.52,0,1,1,0-10.634A7.521,7.521,0,0,1,1042.919,2694.13Z"/><path class="a" d="M1736.872,2603.268a7.519,7.519,0,1,0-10.634,0A7.519,7.519,0,0,0,1736.872,2603.268Z"/></g></svg>