<svg xmlns="http://www.w3.org/2000/svg" width="110.349" height="122.132" viewBox="0 0 110.349 122.132"><defs><style>.a{fill:#584a79;}</style></defs><g transform="translate(-2845.801 -3552.281)"><path class="a" d="M2945.1,3666.6a52.526,52.526,0,0,0-65.17.107c-11.507,9.247-17.481,21.216-17.773,35.6l-.01.686c0,.174,0,.346,0,.521a1.85,1.85,0,0,0,0,.7,74.176,74.176,0,0,0,1.643,13.728,62.809,62.809,0,0,0,2.254,7.927q.265.8.527,1.593a4.679,4.679,0,0,0,5.943,3.033,4.784,4.784,0,0,0,3.088-5.988c-.123-.435-.267-.839-.406-1.23l-.114-.32a58.686,58.686,0,0,1-3.344-21.021,35.084,35.084,0,0,1,9.967-23.958,42.634,42.634,0,0,1,50.2-8.539c13.933,7.237,21.259,18.617,21.776,33.822a9.225,9.225,0,0,1-2.583,6.739,10.866,10.866,0,0,1-7.731,3.235h-.132c-5.907,0-10.46-4.2-10.613-9.825a19.834,19.834,0,0,0-.505-4.224c-2.289-9.362-10.959-15.479-21.08-14.867a19.654,19.654,0,0,0-18.485,19.684,42.832,42.832,0,0,0,4,18.25c6.381,13.507,17.156,22.383,32.026,26.382a5.525,5.525,0,0,0,1.436.195,4.59,4.59,0,0,0,4.5-3.409,4.757,4.757,0,0,0-3.229-5.9c-.757-.258-1.522-.5-2.262-.731-1.074-.337-2.089-.656-3.093-1.028-14-5.183-23.823-19.051-23.886-33.725-.025-5.677,4.429-10.066,10.36-10.21a10.28,10.28,0,0,1,10.725,9.877,20.656,20.656,0,0,0,.539,4.357c2.063,8.219,9.241,14.008,18.289,14.749q.757.062,1.509.062a20.03,20.03,0,0,0,19.16-14.806c1.355-5.5.369-10.951-.774-15.561A47.717,47.717,0,0,0,2945.1,3666.6Z" transform="translate(-11.78 -74.408)"/><path class="a" d="M2941.236,3775.763c-.163-.165-.326-.33-.486-.5-9.293-9.649-14.047-20.7-14.129-32.836l0-.08a22.068,22.068,0,0,1,2.2-11.07,25.675,25.675,0,0,1,17.725-13.75,26.746,26.746,0,0,1,22.756,5.331,23.089,23.089,0,0,1,8.942,17.879c.027.868.11,3.511,2.494,4.455a6.589,6.589,0,0,0,4.2.185c1.842-.576,2.917-2.285,2.875-4.57a31.262,31.262,0,0,0-5.854-18.2,34.825,34.825,0,0,0-34.185-14.867c-12.666,1.518-21.982,8.146-27.691,19.7-2.573,5.207-3.456,10.969-2.863,18.683,1.092,14.2,7.181,26.543,18.615,37.738a4.542,4.542,0,0,0,6.369.129,4.7,4.7,0,0,0,.549-6.579A22.343,22.343,0,0,0,2941.236,3775.763Z" transform="translate(-51.444 -112.029)"/><path class="a" d="M2954.789,3630.825q-.773-.922-1.539-1.856a75.474,75.474,0,0,0-6.108-6.824c-12.258-11.651-27.5-17.7-45.312-17.971h-.046c-14.6.15-27.03,3.708-38.009,10.879a63.776,63.776,0,0,0-16.962,16.376,4.757,4.757,0,0,0,3.725,7.682,5.052,5.052,0,0,0,3.924-1.959c.345-.429.667-.865.978-1.286.235-.318.47-.637.713-.949a52.587,52.587,0,0,1,15.6-13.562,59.2,59.2,0,0,1,37.845-7.013,54.71,54.71,0,0,1,37.671,22.31,5.3,5.3,0,0,0,3.494,2.253,4.67,4.67,0,0,0,3.5-.956,4.616,4.616,0,0,0,1.855-3.165A5.278,5.278,0,0,0,2954.789,3630.825Z" transform="translate(0 -37.473)"/><path class="a" d="M2910.474,3569.919c.472-.225.929-.463,1.371-.694.385-.2.748-.39,1.115-.569a67.2,67.2,0,0,1,44.124-5.3,70.909,70.909,0,0,1,17.441,6.517,5.631,5.631,0,0,0,2.52.624,4.7,4.7,0,0,0,1.516-.247,4.65,4.65,0,0,0,2.685-2.418,4.78,4.78,0,0,0-2.349-6.44c-12.07-6.252-23.838-9.234-35.947-9.084a1.786,1.786,0,0,0-.244-.027,1.738,1.738,0,0,0-.414.032,86.535,86.535,0,0,0-13.605,1.22,71.263,71.263,0,0,0-22.594,7.9,4.714,4.714,0,0,0-2.185,6.5A4.8,4.8,0,0,0,2910.474,3569.919Z" transform="translate(-41.553)"/><path class="a" d="M3066.321,3839.391c-.615.054-1.216.135-1.8.214-.613.083-1.192.161-1.766.207-6.811.538-12.328-.792-16.865-4.063-6.7-4.829-10.091-11.094-10.374-19.151-.1-2.969-2.172-5.064-4.907-4.975a4.683,4.683,0,0,0-3.337,1.5,5.143,5.143,0,0,0-1.278,3.8,38.036,38.036,0,0,0,.7,6.064,33.185,33.185,0,0,0,11.8,19.21,35.083,35.083,0,0,0,21.631,7.415h.022a41.221,41.221,0,0,0,7.447-.806,4.749,4.749,0,1,0-1.266-9.413Z" transform="translate(-130.116 -187.275)"/></g></svg>