<svg xmlns="http://www.w3.org/2000/svg" width="3035.873" height="1555.915" viewBox="0 0 3035.873 1555.915"><defs><style>.a,.d{opacity:0.2;}.b,.e{fill:none;stroke:#584a79;}.b{stroke-miterlimit:10;}.c,.d{fill:#584a79;}</style></defs><g transform="translate(199 -6333)"><g class="a" transform="translate(854.128 5514.741)"><path class="b" d="M448.016,1548.779h124.6l73.8,73.8H989.3l35.451-35.451h512.209L1639.2,1689.371h336.4"/><path class="c" d="M448.392,1556.3a7.519,7.519,0,1,1,7.519-7.519A7.521,7.521,0,0,1,448.392,1556.3Z"/><circle class="c" cx="7.52" cy="7.52" r="7.52" transform="translate(1967.706 1681.852)"/></g><g class="a" transform="translate(-24.326 6112.876)"><path class="c" d="M1629.956,526.138H1038.432L820.644,308.35H387.873L266.086,430.137H178.353L127.8,379.584H-.674v-1H128.213l50.553,50.553h86.905L387.459,307.35h433.6l217.788,217.788h590.7l189.853-189.853H2002v1h-182.2Z"/><path class="c" d="M1381.969,416.569H929.07v-1h452.484L1569.98,227.144H1721.6v1h-151.2Z"/><path class="c" d="M1721.221,220.124a7.52,7.52,0,1,1-7.52,7.52A7.521,7.521,0,0,1,1721.221,220.124Z"/></g><path class="d" d="M322.732,576.86a7.515,7.515,0,0,1,7.495,7.02H464.814l94.242-94.243h85.136a7.52,7.52,0,1,1,0,1H559.47L465.228,584.88h-135a7.515,7.515,0,1,1-7.495-8.02Z" transform="translate(2127.206 7770.899) rotate(180)"/><g class="a" transform="translate(975.006 5686.982)"><path class="c" d="M1202.809,1746.706H811.638l-86.417-86.418H162.137v-1h563.5l86.417,86.418h390.342l113.669-113.669h360.425v1H1316.478Z"/><path class="c" d="M1676.113,1625.018a7.52,7.52,0,1,1-7.52,7.519A7.52,7.52,0,0,1,1676.113,1625.018Z"/><path class="c" d="M162.513,1652.269a7.519,7.519,0,1,0,7.52,7.519A7.52,7.52,0,0,0,162.513,1652.269Z"/></g><g class="a" transform="translate(19 39.976)"><ellipse class="c" cx="6" cy="6.5" rx="6" ry="6.5" transform="translate(1068 7142.024)"/><circle class="c" cx="6.5" cy="6.5" r="6.5" transform="translate(273 7135.024)"/><path class="e" d="M273.358,7111.206h38.553l8.9-8.9H765.655l18.808-18.809H969.3l35.6,35.6h69.185" transform="translate(-0.03 30)"/></g><g class="a" transform="translate(0.934 6107.202)"><path class="c" d="M506.909,690.776H302.75L135.771,523.8H-89.213v-1h225.4L303.165,689.776H506.5L536.367,659.9h93.4v1h-92.99Z"/><path class="c" d="M629.4,667.924a7.52,7.52,0,1,0-7.519-7.52A7.52,7.52,0,0,0,629.4,667.924Z"/><path class="c" d="M44.271,752.053h-187.2v-1H43.857L203.8,591.114l.707.707Z"/></g><g class="a" transform="translate(2022.001 7881.121) rotate(180)"><g transform="translate(-142.934 876.153)"><path class="c" d="M67.827,945.03H-142.934V943.9H67.36L136,875.256h49.939v1.128H136.472Z" transform="translate(142.934 -875.256)"/></g><g transform="translate(177.039 868.237)"><path class="c" d="M149.253,868.237a8.481,8.481,0,1,1-8.481,8.48A8.481,8.481,0,0,1,149.253,868.237Z" transform="translate(-140.772 -868.237)"/></g></g><g class="a" transform="translate(98.083 6305.501)"><g transform="translate(-142.934 873.869)"><path class="c" d="M7,924.893H-142.934v-.8H6.671l48.835-48.835H91.033v.8H55.838Z" transform="translate(142.934 -875.256)"/></g><g transform="translate(84.698 868.237)"><path class="c" d="M146.806,868.237a6.033,6.033,0,1,1-6.034,6.033A6.034,6.034,0,0,1,146.806,868.237Z" transform="translate(-140.772 -868.237)"/></g></g><g class="a" transform="translate(957.787 6277.382)"><path class="c" d="M585.005,517.823H442.134l-27.186-27.186H322.356v-1h93.006l27.186,27.186H585.005Z"/><path class="c" d="M322.732,497.657a7.52,7.52,0,1,1,7.52-7.52A7.521,7.521,0,0,1,322.732,497.657Z"/><path class="c" d="M584.629,524.842a7.519,7.519,0,1,0-7.519-7.519A7.52,7.52,0,0,0,584.629,524.842Z"/></g><g class="a" transform="translate(2392.206 7329.899) rotate(180)"><path class="c" d="M415.362,489.637,509.6,583.88H652.062v1H509.191l-94.243-94.243"/><path class="c" d="M651.686,591.9a7.52,7.52,0,1,0-7.519-7.519A7.52,7.52,0,0,0,651.686,591.9Z"/></g><g class="a" transform="translate(127.617 3871.935)"><path class="b" d="M-326.617,3804.294h413.1l95,95H377.543l29.864,29.864H720.692l120.583-120.583H1292.1l207.909,207.909h461.538"/><path class="b" d="M1373.125,3889.6h138.556l117.533-117.533h360.424"/></g><g class="a" transform="translate(1282.828 14848.997) rotate(180)"><path class="e" d="M79.828,7399.549H181.934L221.382,7439H677.613L812.071,7304.54h272.11"/><circle class="c" cx="8" cy="8" r="8" transform="translate(1080 7297)"/><circle class="c" cx="8" cy="8" r="8" transform="translate(80 7391)"/></g><path class="d" d="M322.732,576.86a7.515,7.515,0,0,1,7.495,7.02H464.814l94.242-94.243h85.136a7.52,7.52,0,1,1,0,1H559.47L465.228,584.88h-135a7.515,7.515,0,1,1-7.495-8.02Z" transform="translate(1050.606 7835.049) rotate(-135)"/><path class="d" d="M478.888,436.632a7.515,7.515,0,0,1,7.495,7.019h85.135l37.732,37.732h34.587a7.52,7.52,0,1,1,0,1h-35L571.1,444.651H486.383a7.515,7.515,0,1,1-7.495-8.019Z" transform="translate(116.631 7243.368)"/></g></svg>