<svg xmlns="http://www.w3.org/2000/svg" xmlns:xlink="http://www.w3.org/1999/xlink" width="328.145" height="959" viewBox="0 0 328.145 959"><defs><style>.a{fill:#fff;}.b{fill:#584a79;}.c{clip-path:url(#a);}.d{fill:#d0ff14;}</style><clipPath id="a"><rect class="a" width="309" height="703" transform="translate(166 2603)"/></clipPath></defs><g transform="translate(-166 -2347)"><g transform="translate(1331.125 3736.5)"><path class="b" d="M-1030.467-476.635l-80.658-80.658v-87.554l.165-.149,103.71-93.726v-58.235l38.75-38.75v-176.086l-130.5-130.5v-65.063h1v64.649l130.5,130.5v176.914l-38.75,38.75v58.265l-.165.149-103.71,93.726v86.7l80.365,80.365Z"/><path class="b" d="M-1106.02-1206.98a7.521,7.521,0,0,1,7.52-7.52,7.521,7.521,0,0,1,7.52,7.52,7.521,7.521,0,0,1-7.52,7.519A7.521,7.521,0,0,1-1106.02-1206.98Z"/><path class="b" d="M-1035.7-471.938a7.519,7.519,0,0,0,10.634,0,7.52,7.52,0,0,0,0-10.635,7.52,7.52,0,0,0-10.634,0A7.52,7.52,0,0,0-1035.7-471.938Z"/><path class="b" d="M-986.646-1030.646l-.707-.707L-897-1121.707v-120l52-52v-88.649h1v89.063l-52,52v120Z"/><path class="b" d="M-852.02-1381.98a7.521,7.521,0,0,1,7.52-7.52,7.521,7.521,0,0,1,7.52,7.52,7.521,7.521,0,0,1-7.52,7.519A7.521,7.521,0,0,1-852.02-1381.98Z"/></g><g class="c"><g transform="translate(1331.125 3736.5)"><path class="d" d="M-1030.467-476.635l-80.658-80.658v-87.554l.165-.149,103.71-93.726v-58.235l38.75-38.75v-176.086l-130.5-130.5v-65.063h1v64.649l130.5,130.5v176.914l-38.75,38.75v58.265l-.165.149-103.71,93.726v86.7l80.365,80.365Z"/><path class="d" d="M-1106.02-1206.98a7.521,7.521,0,0,1,7.52-7.52,7.521,7.521,0,0,1,7.52,7.52,7.521,7.521,0,0,1-7.52,7.519A7.521,7.521,0,0,1-1106.02-1206.98Z"/><path class="d" d="M-1035.7-471.938a7.519,7.519,0,0,0,10.634,0,7.52,7.52,0,0,0,0-10.635,7.52,7.52,0,0,0-10.634,0A7.52,7.52,0,0,0-1035.7-471.938Z"/><path class="d" d="M-986.646-1030.646l-.707-.707L-897-1121.707v-120l52-52v-88.649h1v89.063l-52,52v120Z"/><path class="d" d="M-852.02-1381.98a7.521,7.521,0,0,1,7.52-7.52,7.521,7.521,0,0,1,7.52,7.52,7.521,7.521,0,0,1-7.52,7.519A7.521,7.521,0,0,1-852.02-1381.98Z"/></g></g></g></svg>