<svg xmlns="http://www.w3.org/2000/svg" width="165.823" height="130.017" viewBox="0 0 165.823 130.017"><defs><style>.a{fill:#584a79;}.b{fill:#d0ff14;}</style></defs><g transform="translate(-1124.494 -4875.426)"><g transform="translate(1934.615 3050.442)"><path class="a" d="M-759.8,1957.946a50.319,50.319,0,0,0-50.319,50.319v50.319H-759.8a50.319,50.319,0,0,0,50.319-50.319A50.319,50.319,0,0,0-759.8,1957.946Zm-15.276,55.563a4.581,4.581,0,0,1-4.581-4.582,4.581,4.581,0,0,1,4.581-4.582,4.581,4.581,0,0,1,4.581,4.582A4.581,4.581,0,0,1-775.078,2013.51Zm14.642,0a4.581,4.581,0,0,1-4.581-4.582,4.581,4.581,0,0,1,4.581-4.582,4.581,4.581,0,0,1,4.581,4.582A4.581,4.581,0,0,1-760.436,2013.51Zm15.909,0a4.581,4.581,0,0,1-4.581-4.582,4.581,4.581,0,0,1,4.581-4.582,4.581,4.581,0,0,1,4.582,4.582A4.581,4.581,0,0,1-744.527,2013.51Z" transform="translate(0 -103.583)"/><path class="b" d="M-323.714,1824.984a32.8,32.8,0,0,0-32.8,32.8,32.8,32.8,0,0,0,32.8,32.8h32.8v-32.8A32.8,32.8,0,0,0-323.714,1824.984Zm-9.957,36.215a2.986,2.986,0,0,1-2.986-2.986,2.986,2.986,0,0,1,2.986-2.986,2.986,2.986,0,0,1,2.986,2.986A2.986,2.986,0,0,1-333.67,1861.2Zm10.369,0a2.986,2.986,0,0,1-2.986-2.986,2.986,2.986,0,0,1,2.986-2.986,2.986,2.986,0,0,1,2.986,2.986A2.986,2.986,0,0,1-323.3,1861.2Zm9.544,0a2.986,2.986,0,0,1-2.986-2.986,2.986,2.986,0,0,1,2.986-2.986,2.986,2.986,0,0,1,2.986,2.986A2.986,2.986,0,0,1-313.757,1861.2Z" transform="translate(-353.382)"/></g></g></svg>