<svg xmlns="http://www.w3.org/2000/svg" width="710.56" height="63.773" viewBox="0 0 710.56 63.773"><defs><style>.a{fill:#584a79;}</style></defs><g transform="translate(-176.1 -2651.003)"><path class="a" d="M392.035,2714.776H304.29l-31.34-31.34H207.827L183,2658.609l.707-.707,24.534,24.534h65.123l31.34,31.34h86.917l40.692-40.692H681.59l20.177,20.176H879.516v1H701.353l-20.177-20.176H432.728Z"/><path class="a" d="M178.3,2663.839a7.52,7.52,0,1,1,10.635,0A7.52,7.52,0,0,1,178.3,2663.839Z"/><path class="a" d="M879.14,2701.28a7.52,7.52,0,1,0-7.519-7.52A7.521,7.521,0,0,0,879.14,2701.28Z"/></g></svg>