<svg height="35.248" viewBox="0 0 126.178 35.248" width="126.178" xmlns="http://www.w3.org/2000/svg"><path d="m5182.814 1260.254c0 4.609-3.449 7.527-8.854 7.527h-7.16v8.688h-4.542v-23.543h11.937c5.269 0 8.619 2.852 8.619 7.328zm-4.742.1c0-2.52-1.791-4.012-4.775-4.012h-6.5v8.058h6.466c2.985 0 4.809-1.526 4.809-4.046z" fill="#1e1e1e" transform="translate(-5079.156 -1241.885)"/><path d="m5540.687 1258.818 3.813-1.724c1.161 2.984 3.78 5.04 8.224 5.04 3.548 0 5.836-1.028 5.836-3.482 0-2.188-1.393-3.018-4.443-3.482l-5.04-.7c-4.477-.7-7-2.719-7-6.731 0-4.311 3.747-6.964 10.081-6.964 5.438 0 9.318 1.923 10.876 5.936l-3.548 1.89c-1.094-2.819-3.548-4.41-7.527-4.41-3.382 0-5.438 1.161-5.438 3.216 0 1.957 1.161 2.852 4.211 3.316l4.907.729c4.875.763 7.461 2.62 7.461 6.765 0 4.443-3.614 7.428-10.512 7.428-6.463.004-10.475-2.616-11.901-6.827z" fill="#1e1e1e" transform="translate(-5436.925 -1230.401)"/><path d="m4511.7 1061.092h-7.958v-2.95a7.427 7.427 0 1 0 -7.428 7.428h2.951v7.958a12.435 12.435 0 1 0 12.435-12.435zm-12.435 0h-2.95a2.95 2.95 0 1 1 2.95-2.95zm18.062 18.062a7.958 7.958 0 0 1 -13.584-5.627v-7.958h7.958a7.958 7.958 0 0 1 5.627 13.584z" fill="#212121" transform="translate(-4442.561 -1050.714)"/><g fill="#1e1e1e"><path d="m3640.386 1291.1v-22.6h3.741v22.6z" transform="translate(-3640.386 -1256.61)"/><path d="m3745.339 1399.194a4 4 0 0 0 4.146 4.3 3.919 3.919 0 0 0 3.8-2.587l2.868 1.309a6.943 6.943 0 0 1 -6.795 4.208c-4.769 0-7.637-2.9-7.637-8.01 0-5.143 2.805-8.323 7.45-8.323 4.52 0 7.107 2.618 7.107 7.387v1.714zm3.771-6.608c-2.369 0-3.709 1.558-3.771 4.146h7.263v-.249c-.002-2.557-1.279-3.897-3.492-3.897z" transform="translate(-3736.19 -1371.561)"/><path d="m4041.145 1401.812a3.984 3.984 0 0 1 1.9-3.522 13.805 13.805 0 0 1 5.081-1.4l3.3-.405v-.405c0-2.338-.9-3.335-2.9-3.335a2.739 2.739 0 0 0 -3.055 2.743h-3.834c.25-3.335 2.868-5.392 6.889-5.392 4.613 0 6.67 1.964 6.67 6.483v4.644a18.8 18.8 0 0 0 .468 4.831h-3.741a21.8 21.8 0 0 1 -.249-2.681c-.749 1.9-2.712 3.055-5.237 3.055-3.172-.003-5.292-1.842-5.292-4.616zm10.379-2.151v-1l-3.522.53c-2.057.343-2.992 1.091-2.992 2.431 0 1.309 1 2.151 2.649 2.151a3.768 3.768 0 0 0 3.865-4.112z" transform="translate(-4019.262 -1371.561)"/><path d="m4344.548 1390.466v3.024a5.334 5.334 0 0 1 5.174-3.4c3.4 0 5.174 2.12 5.174 6.3v9.663h-3.771v-9.289c0-2.462-.935-3.678-2.9-3.678-2.182 0-3.491 1.746-3.491 4.707v8.26h-3.74v-15.585z" transform="translate(-4302.739 -1371.561)"/></g></svg>