<svg xmlns="http://www.w3.org/2000/svg" width="472.426" height="889.393" viewBox="0 0 472.426 889.393"><defs><style>.a{fill:#d0ff14;}</style></defs><path class="a" d="M-2115.989-575.075v-41.361l160.7-160.7V-885.1l-65.618-65.618v-223.723L-1909-1286.357l-35.566-35.566v-114.61a6.992,6.992,0,0,1-6.531-6.972,7,7,0,0,1,7-7,7,7,0,0,1,7,7,6.992,6.992,0,0,1-6.531,6.972v114.225l97.684,97.684v185.135l189.322,189.321v208.108a6.992,6.992,0,0,1,6.531,6.972,7,7,0,0,1-7,7,7,7,0,0,1-7-7,6.992,6.992,0,0,1,6.531-6.972V-849.781L-1846.877-1039.1v-185.135l-61.461-61.461-111.639,111.639v222.953l65.618,65.618v108.738l-160.7,160.7v40.976a6.992,6.992,0,0,1,6.531,6.972,7,7,0,0,1-7,7,7,7,0,0,1-7-7A6.992,6.992,0,0,1-2115.989-575.075Z" transform="translate(-1650.094 -561.107) rotate(180)"/></svg>