<svg xmlns="http://www.w3.org/2000/svg" width="314.847" height="995.324" viewBox="0 0 314.847 995.324"><defs><style>.a{fill:#d0ff14;}</style></defs><path class="a" d="M-600.2-859.669v-177.113l-113.234-113.234V-1301.5a8.51,8.51,0,0,0,7.949-8.486A8.516,8.516,0,0,0-714-1318.5a8.516,8.516,0,0,0-8.515,8.515,8.51,8.51,0,0,0,7.949,8.486v151.952l31.754,31.754-107.9,107.9v90.87L-904.944-804.795v146.681l83.863,83.864v62.871L-907.1-425.356v85.179a8.51,8.51,0,0,0-7.949,8.486,8.515,8.515,0,0,0,8.515,8.515,8.515,8.515,0,0,0,8.514-8.515,8.509,8.509,0,0,0-7.948-8.486v-84.71l86.021-86.023v-63.809l-83.863-83.863V-804.326l114.224-114.224v-90.87l107.572-107.572,80.679,80.679v176.176l-162.49,162.49V-506.38l43.312,43.312v96.848a8.51,8.51,0,0,0-7.949,8.486,8.516,8.516,0,0,0,8.515,8.515,8.516,8.516,0,0,0,8.515-8.515,8.51,8.51,0,0,0-7.949-8.486v-97.316l-43.312-43.312v-190.33Z" transform="translate(-600.204 -323.176) rotate(180)"/></svg>