<svg xmlns="http://www.w3.org/2000/svg" width="983.528" height="482.429" viewBox="0 0 983.528 482.429"><defs><style>.a{fill:#3a3a3a;}</style></defs><path class="a" d="M-1156.592-667.433v-93.492l-70.161-70.16v-201.034l-164.59-164.588,80.9-80.9v-122.88a8.017,8.017,0,0,0,7.489-7.994,8.023,8.023,0,0,0-8.022-8.022,8.023,8.023,0,0,0-8.022,8.022,8.017,8.017,0,0,0,7.488,7.994v122.438l-186.678,186.678-132.275-132.275v-104.3a8.017,8.017,0,0,0,7.489-7.994,8.023,8.023,0,0,0-8.022-8.022,8.023,8.023,0,0,0-8.022,8.022,8.017,8.017,0,0,0,7.488,7.994V-1223.2l197.346,197.346v176.636l-107.74,107.74v67.2l-39.469,39.469v59.112l122.706,122.706a8.016,8.016,0,0,0,.358,10.948,8.022,8.022,0,0,0,11.344,0,8.022,8.022,0,0,0,0-11.344,8.015,8.015,0,0,0-10.948-.358l-122.394-122.394v-58.229l39.469-39.469v-67.2l107.74-107.74V-1026.3l-64.317-64.317,105.34-105.34,164.277,164.277v201.033l70.161,70.161v92.607l-131.331,131.33v87.556a8.016,8.016,0,0,0-7.488,7.994,8.022,8.022,0,0,0,8.021,8.022,8.022,8.022,0,0,0,8.022-8.022,8.017,8.017,0,0,0-7.488-7.994V-536.1Z" transform="translate(1416.5 -1156.592) rotate(-90)"/></svg>