<svg xmlns="http://www.w3.org/2000/svg" width="1056.128" height="518.04" viewBox="0 0 1056.128 518.04"><defs><style>.a{fill:#d0ff14;}</style></defs><path class="a" d="M-1120.98-612.14V-712.533l-75.34-75.339v-215.874l-176.739-176.738,86.868-86.868V-1399.3a8.609,8.609,0,0,0,8.041-8.584,8.615,8.615,0,0,0-8.614-8.614,8.615,8.615,0,0,0-8.614,8.614,8.609,8.609,0,0,0,8.041,8.584v131.476l-200.458,200.458-142.039-142.039v-112a8.609,8.609,0,0,0,8.041-8.584,8.615,8.615,0,0,0-8.614-8.614,8.615,8.615,0,0,0-8.614,8.614,8.609,8.609,0,0,0,8.041,8.584v112.478l211.913,211.913v189.674l-115.693,115.693v72.165l-42.382,42.382v63.475l131.764,131.764a8.608,8.608,0,0,0,.385,11.756,8.614,8.614,0,0,0,12.181,0,8.614,8.614,0,0,0,0-12.181,8.607,8.607,0,0,0-11.756-.385L-1576-514.1V-576.63l42.383-42.383v-72.165l115.693-115.693V-997.493l-69.064-69.064,113.115-113.116,176.4,176.4V-787.4l75.34,75.34v99.443L-1263.151-471.59v94.019a8.608,8.608,0,0,0-8.04,8.584,8.614,8.614,0,0,0,8.613,8.614,8.614,8.614,0,0,0,8.614-8.614,8.609,8.609,0,0,0-8.041-8.584v-93.545Z" transform="translate(1416.5 -1120.98) rotate(-90)"/></svg>