<svg xmlns="http://www.w3.org/2000/svg" width="480.773" height="839.734" viewBox="0 0 480.773 839.734"><defs><style>.a{fill:#584a79;}</style></defs><path class="a" d="M1909.021-1004.281v-18.533l-122.21-122.211v-160.951l122.21-122.211V-1642.38a7.516,7.516,0,0,0,7.02-7.495,7.521,7.521,0,0,0-7.52-7.519,7.521,7.521,0,0,0-7.52,7.519,7.516,7.516,0,0,0,7.02,7.495V-1428.6l-122.14,122.14h-.07v.071l-218.524,218.523v-175l-71-71v-102.779a7.516,7.516,0,0,0,7.02-7.494,7.521,7.521,0,0,0-7.52-7.52,7.52,7.52,0,0,0-7.519,7.52,7.515,7.515,0,0,0,7.019,7.494v103.193l71,71v234.586l-124,124v71.193a7.515,7.515,0,0,0-7.019,7.494,7.52,7.52,0,0,0,7.519,7.52,7.521,7.521,0,0,0,7.52-7.52,7.516,7.516,0,0,0-7.02-7.494v-70.779l124-124v-59l218.524-218.523v160.365l122.21,122.211v18.119a7.515,7.515,0,0,0-7.019,7.495,7.52,7.52,0,0,0,7.519,7.519,7.52,7.52,0,0,0,7.52-7.519A7.516,7.516,0,0,0,1909.021-1004.281Z" transform="translate(-1435.268 1657.394)"/></svg>