<svg xmlns="http://www.w3.org/2000/svg" width="690.277" height="829.576" viewBox="0 0 690.277 829.576"><defs><style>.a{fill:#584a79;}</style></defs><path class="a" d="M822.229,1937.852a7.615,7.615,0,0,0-10.366-.083,7.515,7.515,0,0,0-.514,10.435l-81.575,81.575H365.6l-46.45,46.449-82.04-82.04v-69.244c5.294-.349,9.1-6.165,5.771-11.865a5.316,5.316,0,0,0-1.9-1.9c-5.869-3.432-11.892.717-11.892,6.27a7.515,7.515,0,0,0,7.02,7.495V1994.6l82.333,82.333L231.9,2163.478v296.21l54.528,54.526v72.366L146.675,2726.335a7.516,7.516,0,0,0-10.436.514,7.614,7.614,0,0,0,.083,10.365,7.515,7.515,0,0,0,11.06-10.172L287.43,2586.994V2513.8L232.9,2459.273V2163.892l133.114-133.113H730.188l81.868-81.868a7.515,7.515,0,0,0,10.173-11.059Z" transform="translate(-134.244 -1909.931)"/></svg>