<svg xmlns="http://www.w3.org/2000/svg" width="348.355" height="608.449" viewBox="0 0 348.355 608.449"><defs><style>.a{fill:#584a79;}</style></defs><path class="a" d="M3842.354-4304.465v-13.429l88.551-88.551v-116.621l-88.551-88.55v-155.2a5.444,5.444,0,0,1-5.085-5.43,5.449,5.449,0,0,1,5.449-5.449,5.449,5.449,0,0,1,5.448,5.449,5.444,5.444,0,0,1-5.086,5.43v154.9l88.5,88.5h.051v.051l158.336,158.335v-126.8l51.445-51.445v-74.471a5.445,5.445,0,0,1-5.086-5.43,5.449,5.449,0,0,1,5.448-5.448,5.449,5.449,0,0,1,5.449,5.448,5.445,5.445,0,0,1-5.087,5.43v74.771l-51.445,51.445v169.975l89.847,89.847v51.586a5.443,5.443,0,0,1,5.087,5.43,5.45,5.45,0,0,1-5.449,5.448,5.45,5.45,0,0,1-5.448-5.448,5.444,5.444,0,0,1,5.086-5.43v-51.286l-89.847-89.848v-42.75l-158.336-158.335v116.2l-88.551,88.55v13.129a5.446,5.446,0,0,1,5.086,5.431,5.449,5.449,0,0,1-5.449,5.448,5.448,5.448,0,0,1-5.448-5.448A5.446,5.446,0,0,1,3842.354-4304.465Z" transform="translate(-3837.268 4777.694)"/></svg>