<svg xmlns="http://www.w3.org/2000/svg" xmlns:xlink="http://www.w3.org/1999/xlink" viewBox="0 0 138.51 49.31"><defs><style>.cls-1{fill:none;}.cls-2{clip-path:url(#clip-path);}.cls-3{fill:#fa4616;}</style><clipPath id="clip-path" transform="translate(0 0)"><rect class="cls-1" width="138.51" height="49.31"/></clipPath></defs><title>Asset 1</title><g id="Layer_2" data-name="Layer 2"><g id="Layer_1-2" data-name="Layer 1"><g class="cls-2"><path class="cls-3" d="M0,0H49.31V49.31H0ZM5.1,44.2H44.2V5.1H5.1ZM24.82,12.72h5.1V27.66c0,6.75-3.83,10.82-10.29,10.82s-10.08-4-10.08-10.82V12.72h5.1V27.66c0,3.74,1.57,6,5.11,6s5.06-2.14,5.06-6Zm14.81,0a3.13,3.13,0,0,1-6.25,0,3.13,3.13,0,1,1,6.25,0M34,18.19h5.11v20H34ZM73.3,21.28c0,5.47-3.62,8.72-9.18,8.72H59.51v8.24h-5.1V12.72h9.71c5.64,0,9.18,3.29,9.18,8.56m-5.18,0c0-2.8-1.61-4.45-4.53-4.45H59.51v9.1h4.08c2.92,0,4.53-1.65,4.53-4.65m22.34-3.09h5.11V38.24H90.46V36C89.11,37.58,87,38.48,84,38.48c-5.43,0-9.26-4.28-9.26-10.25S78.45,18,84,18a7.9,7.9,0,0,1,6.5,2.75Zm0,10c0-3.45-2-5.84-5.31-5.84s-5.26,2.26-5.26,5.84c0,3.34,1.81,5.77,5.26,5.77,3.13,0,5.31-2.27,5.31-5.77M108,33.87h2v4.37h-2.67c-4.86,0-7-2.31-7-7V22.51H98V18.19h2.38V12.72h5.11v5.47H110v4.32h-4.48v8.73c0,1.77.53,2.63,2.51,2.63m24-7.28V38.24H127V27.16c0-3-1.56-5-4.57-5s-4.81,2.06-4.81,5.48V38.24h-5.11V11.48h5.11v8.77c1.27-1.52,3.29-2.35,6-2.35,4.73,0,8.43,3.42,8.43,8.69M131,11.48h2.68V12h-1v3.17H132V12h-1Zm7.5,0v3.71h-.62v-2.8l-1.15,2.8h-.5l-1.19-2.8v2.8h-.58V11.48h.78l1.2,2.93,1.27-2.93Z" transform="translate(0 0)"/></g></g></g></svg>